<?xml version="1.0" encoding="UTF-8"?>
<svg width="56px" height="56px" viewBox="0 0 56 56" version="1.1" xmlns="http://www.w3.org/2000/svg" xmlns:xlink="http://www.w3.org/1999/xlink">
    <title>Birthday-cake-01</title>
    <g id="Page-1" stroke="none" stroke-width="1" fill="none" fill-rule="evenodd">
        <g id="Resume-Eng" transform="translate(-1289.000000, -2826.000000)" fill="#2C7DDD" fill-rule="nonzero">
            <g id="Group" transform="translate(140.000000, 112.000000)">
                <g id="Bio" transform="translate(1140.000000, 2608.000000)">
                    <g id="Birthday-cake-01" transform="translate(9.000000, 106.000000)">
                        <path d="M55.5,43.7 L55.5,55.5 L0.5,55.5 L0.5,43.7 C1.4,43.7 2.3,43.6 3.1,43.3 C3.9,43 4.5,42.7 4.9,42.5 C5.3,42.2 5.8,41.8 6.3,41.3 C6.9,40.7 7.4,40.4 7.9,40.1 C8.3,39.9 8.9,39.8 9.6,39.8 C10.3,39.8 10.9,39.9 11.3,40.1 C11.7,40.3 12.3,40.7 12.9,41.3 C13.5,41.8 14,42.2 14.3,42.5 C14.7,42.8 15.3,43 16.1,43.3 C16.9,43.6 17.8,43.7 18.7,43.7 C19.6,43.7 20.5,43.6 21.3,43.3 C22.1,43 22.7,42.7 23.1,42.5 C23.5,42.2 24,41.9 24.6,41.3 C25,40.9 25.4,40.6 25.6,40.5 C25.8,40.3 26.2,40.2 26.6,40 C27,39.9 27.4,39.8 27.9,39.8 C28.6,39.8 29.2,39.9 29.6,40.1 C30,40.3 30.6,40.7 31.2,41.3 C31.8,41.8 32.3,42.2 32.6,42.5 C33,42.8 33.6,43.1 34.4,43.3 C35.2,43.6 36.1,43.7 37,43.7 C37.9,43.7 38.8,43.6 39.6,43.3 C40.4,43 41,42.7 41.4,42.5 C41.8,42.2 42.3,41.8 42.8,41.3 C43.4,40.7 43.9,40.4 44.4,40.1 C44.9,39.8 45.4,39.8 46.1,39.8 C46.8,39.8 47.4,39.9 47.8,40.1 C48.2,40.3 48.8,40.7 49.4,41.3 C50,41.8 50.5,42.2 50.8,42.5 C51.2,42.8 51.8,43.1 52.6,43.3 C53.7,43.6 54.6,43.7 55.5,43.7 Z M55.5,33.9 L55.5,39.8 C54.8,39.8 54.2,39.7 53.8,39.5 C53.4,39.3 52.8,38.9 52.2,38.3 C51.6,37.8 51.1,37.4 50.8,37.1 C50.5,36.8 49.8,36.6 49,36.3 C48.2,36 47.3,35.9 46.4,35.9 C45.5,35.9 44.6,36 43.8,36.3 C43,36.6 42.4,36.9 42,37.1 C41.6,37.4 41.2,37.8 40.6,38.3 C40.1,38.7 39.8,39 39.6,39.1 C39.4,39.3 39.1,39.4 38.6,39.6 C38.2,39.7 37.7,39.8 37.2,39.8 C36.5,39.8 35.9,39.7 35.5,39.5 C35.1,39.3 34.5,38.9 33.9,38.3 C33.3,37.8 32.8,37.4 32.5,37.1 C32.1,36.8 31.5,36.6 30.7,36.3 C29.9,36 29,35.9 28.1,35.9 C27.2,35.9 26.3,36 25.5,36.3 C24.7,36.6 24.1,36.9 23.7,37.1 C23.3,37.4 22.8,37.7 22.2,38.3 C21.8,38.7 21.4,39 21.2,39.1 C21,39.3 20.6,39.4 20.2,39.6 C19.8,39.7 19.4,39.8 18.9,39.8 C18.2,39.8 17.6,39.7 17.2,39.5 C16.8,39.3 16.2,38.9 15.6,38.3 C15,37.8 14.5,37.4 14.2,37.1 C13.9,36.8 13.2,36.5 12.4,36.3 C11.6,36.1 10.7,35.9 9.8,35.9 C8.9,35.9 8,36 7.2,36.3 C6.4,36.6 5.8,36.9 5.4,37.1 C5,37.4 4.6,37.8 4,38.3 C3.4,38.9 2.9,39.2 2.4,39.5 C2,39.7 1.4,39.8 0.7,39.8 L0.7,33.9 C0.7,32.3 1.3,30.9 2.4,29.7 C3.5,28.5 4.9,28 6.6,28 L8.6,28 L8.6,14.3 L16.5,14.3 L16.5,28 L24.4,28 L24.4,14.3 L32.3,14.3 L32.3,28 L40.2,28 L40.2,14.3 L48.1,14.3 L48.1,28 L50.1,28 C51.7,28 53.1,28.6 54.3,29.7 C55.5,30.8 55.5,32.3 55.5,33.9 Z M16.2,7.4 C16.2,9 15.8,10.2 15.1,11 C14.4,11.8 13.4,12.3 12.3,12.3 C11.2,12.3 10.3,11.9 9.5,11.1 C8.7,10.3 8.3,9.4 8.3,8.3 C8.3,7.7 8.4,7.2 8.6,6.7 C8.8,6.2 9,5.9 9.3,5.7 C9.6,5.5 9.9,5.2 10.3,4.8 C10.6,4.5 11,4.2 11.3,3.8 C11.6,3.5 11.8,3 12,2.4 C12.2,1.8 12.3,1.1 12.3,0.3 C13.1,0.3 13.9,1.1 14.8,2.6 C15.8,4.3 16.2,5.8 16.2,7.4 Z M31.9,7.4 C31.9,9 31.5,10.2 30.8,11 C30.1,11.8 29.1,12.3 28,12.3 C26.9,12.3 26,11.9 25.2,11.1 C24.4,10.3 24,9.4 24,8.3 C24,7.7 24.1,7.2 24.3,6.7 C24.5,6.2 24.7,5.9 25,5.7 C25.3,5.5 25.6,5.2 26,4.8 C26.3,4.5 26.7,4.2 27,3.8 C27.3,3.5 27.5,3 27.7,2.4 C27.9,1.8 28,1.1 28,0.3 C28.8,0.3 29.6,1.1 30.5,2.6 C31.5,4.3 31.9,5.8 31.9,7.4 Z M47.6,7.4 C47.6,9 47.2,10.2 46.5,11 C45.8,11.8 44.8,12.3 43.7,12.3 C42.6,12.3 41.7,11.9 40.9,11.1 C40.1,10.3 39.7,9.4 39.7,8.3 C39.7,7.7 39.8,7.2 40,6.7 C40.2,6.2 40.4,5.9 40.7,5.7 C41,5.5 41.3,5.2 41.7,4.8 C42,4.5 42.4,4.2 42.7,3.8 C43,3.5 43.2,3 43.4,2.4 C43.6,1.8 43.7,1.1 43.7,0.3 C44.5,0.3 45.3,1.1 46.2,2.6 C47.1,4.1 47.6,5.8 47.6,7.4 Z" id="XMLID_9_"></path>
                    </g>
                </g>
            </g>
        </g>
    </g>
</svg>