<?xml version="1.0" encoding="UTF-8"?>
<svg width="56px" height="56px" viewBox="0 0 56 56" version="1.1" xmlns="http://www.w3.org/2000/svg" xmlns:xlink="http://www.w3.org/1999/xlink">
    <title>Fill 4</title>
    <g id="Page-1" stroke="none" stroke-width="1" fill="none" fill-rule="evenodd">
        <g id="Resume-Eng" transform="translate(-2009.000000, -3236.000000)" fill="#2C7DDD">
            <g id="Group" transform="translate(140.000000, 112.000000)">
                <g id="Contacts" transform="translate(1140.000000, 3016.000000)">
                    <g id="Hacking" transform="translate(729.000000, 108.000000)">
                        <path d="M0,28.709483 C0,41.3934701 8.02210013,52.1529173 19.1485313,55.9491252 C20.5494337,56.213485 21.0599466,55.3269982 21.0599466,54.5656418 C21.0599466,53.8853557 21.035882,52.0788965 21.0221308,49.683796 C13.2338009,51.4179968 11.5905338,45.8347161 11.5905338,45.8347161 C10.3168299,42.5178808 8.48104607,41.6349188 8.48104607,41.6349188 C5.93879493,39.8548956 8.67356272,39.8901436 8.67356272,39.8901436 C11.4839621,40.0928195 12.9622149,42.8492119 12.9622149,42.8492119 C15.4597747,47.2358235 19.5163756,45.9686585 21.1115136,45.233738 C21.3659106,43.379694 22.0895669,42.1142914 22.8888548,41.3969949 C16.6715983,40.6726489 10.1346266,38.2088148 10.1346266,27.2079189 C10.1346266,24.0743731 11.2261273,21.5100823 13.0172197,19.504472 C12.7284447,18.7783635 11.7675803,15.858068 13.2922435,11.906769 C13.2922435,11.906769 15.641978,11.1348382 20.9911906,14.8499757 C23.22404,14.2119872 25.6201848,13.8947553 28.0008594,13.8824185 C30.3798152,13.8947553 32.7742411,14.2119872 35.0105283,14.8499757 C40.3563031,11.1348382 42.7025998,11.906769 42.7025998,11.906769 C44.2307008,15.858068 43.2698364,18.7783635 42.9827803,19.504472 C44.7773105,21.5100823 45.8602167,24.0743731 45.8602167,27.2079189 C45.8602167,38.2370131 39.3129316,40.6638369 33.0767672,41.3740837 C34.0806041,42.2605705 34.9761503,44.0123953 34.9761503,46.6912421 C34.9761503,50.5279852 34.9417723,53.6245206 34.9417723,54.5656418 C34.9417723,55.3340478 35.4471285,56.2275842 36.8669388,55.9473628 C47.9847755,52.1423429 56,41.3899453 56,28.709483 C56,12.8531774 43.462353,0 27.9974217,0 C12.537647,0 0,12.8531774 0,28.709483 Z" id="Fill-4"></path>
                    </g>
                </g>
            </g>
        </g>
    </g>
</svg>