<?xml version="1.0" encoding="UTF-8"?>
<svg width="37px" height="57px" viewBox="0 0 37 57" version="1.1" xmlns="http://www.w3.org/2000/svg" xmlns:xlink="http://www.w3.org/1999/xlink">
    <title>gmail</title>
    <g id="Page-1" stroke="none" stroke-width="1" fill="none" fill-rule="evenodd">
        <g id="Resume-Eng" transform="translate(-1288.000000, -3236.000000)" fill="#2C7DDD">
            <g id="Group" transform="translate(140.000000, 112.000000)">
                <g id="Contacts" transform="translate(1140.000000, 3016.000000)">
                    <g id="Capa_1" transform="translate(8.000000, 108.000000)">
                        <path d="M37.0406008,0 L21.7552346,0 C17.7622464,0 12.7251562,0.592728601 8.49929299,4.09686013 C5.31056798,6.8684405 3.75846056,10.6688768 3.75846056,14.1066075 C3.75846056,19.9317933 8.20527782,25.8423006 16.0620101,25.8423006 C16.8051332,25.8423006 17.6093963,25.7593591 18.434787,25.6834384 C18.0655861,26.5724718 17.6893033,27.3216827 17.6893033,28.5996013 C17.6893033,30.9041148 18.876813,32.3266159 19.9139512,33.6708163 C16.5840612,33.9031002 10.35474,34.2730647 5.75271204,37.1133069 C1.37399866,39.7212651 0.0430813085,43.5217015 0.0430813085,46.226881 C0.0430813085,51.7486221 5.23774286,56.9028977 15.9845818,56.9028977 C28.732518,56.9028977 35.479287,49.8021733 35.479287,42.7773695 C35.479287,37.6302338 32.5256797,35.0862965 29.2640116,32.3289958 L26.5808132,30.2378455 C25.7601438,29.5645553 24.6618655,28.673023 24.6618655,27.0300188 C24.6618655,25.3751148 25.7623864,24.339119 26.7382666,23.3670251 C29.8400028,20.9013883 32.9653451,18.2862902 32.9653451,12.7716889 C32.9653451,7.09108559 29.4003373,4.103881 27.700101,2.68602088 L32.2997684,2.68602088 L37.0406008,0 L37.0406008,0 Z M30.5149039,45.6887724 C30.5149039,50.3119603 26.7406272,53.7709916 19.6222967,53.7709916 C11.6785755,53.7709916 6.5662996,49.9515157 6.5662996,44.6574175 C6.5662996,39.3418998 11.3165745,37.5566931 12.9438677,36.9592046 C16.0621282,35.908929 20.0668014,35.7713674 20.7347387,35.7713674 C21.4707799,35.7713674 21.8376202,35.7713674 22.4419388,35.8401482 C28.0715445,39.8612067 30.5149039,41.8907161 30.5149039,45.6887724 L30.5149039,45.6887724 Z M24.5889224,21.6483382 C23.3966914,22.8337954 21.4001974,23.7347286 19.5329472,23.7347286 C13.162461,23.7347286 10.274715,15.446167 10.274715,10.4437328 C10.274715,8.5044238 10.6486372,6.49145511 11.9020082,4.91961169 C13.0895179,3.4259499 15.1707582,2.45861587 17.0943091,2.45861587 C23.2366414,2.45861587 26.4348089,10.8205992 26.4348089,16.1953779 C26.4349269,17.5419582 26.2984831,19.9270334 24.5889224,21.6483382 L24.5889224,21.6483382 Z" id="Google_3_"></path>
                    </g>
                </g>
            </g>
        </g>
    </g>
</svg>