<?xml version="1.0" encoding="UTF-8"?>
<svg width="57px" height="57px" viewBox="0 0 57 57" version="1.1" xmlns="http://www.w3.org/2000/svg" xmlns:xlink="http://www.w3.org/1999/xlink">
    <title>language</title>
    <g id="Page-1" stroke="none" stroke-width="1" fill="none" fill-rule="evenodd">
        <g id="language" fill="#2C7DDD" fill-rule="nonzero">
            <path d="M28.6386667,0.66666667 C13.1826667,0.66666667 0.66666667,13.2106667 0.66666667,28.6666667 C0.66666667,44.1226667 13.1826667,56.6666667 28.6386667,56.6666667 C44.1226667,56.6666667 56.6666667,44.1226667 56.6666667,28.6666667 C56.6666667,13.2106667 44.1226667,0.66666667 28.6386667,0.66666667 Z M48.0426667,17.4666667 L39.7826667,17.4666667 C38.8866667,13.9666667 37.5986667,10.6066667 35.9186667,7.4986667 C41.0706667,9.2626667 45.3546667,12.8466667 48.0426667,17.4666667 Z M28.6666667,6.3786667 C30.9906667,9.7386667 32.8106667,13.4626667 34.0146667,17.4666667 L23.3186667,17.4666667 C24.5226667,13.4626667 26.3426667,9.7386667 28.6666667,6.3786667 Z M6.9946667,34.2666667 C6.5466667,32.4746667 6.2666667,30.5986667 6.2666667,28.6666667 C6.2666667,26.7346667 6.5466667,24.8586667 6.9946667,23.0666667 L16.4586667,23.0666667 C16.2346667,24.9146667 16.0666667,26.7626667 16.0666667,28.6666667 C16.0666667,30.5706667 16.2346667,32.4186667 16.4586667,34.2666667 L6.9946667,34.2666667 Z M9.2906667,39.8666667 L17.5506667,39.8666667 C18.4466667,43.3666667 19.7346667,46.7266667 21.4146667,49.8346667 C16.2626667,48.0706667 11.9786667,44.5146667 9.2906667,39.8666667 L9.2906667,39.8666667 Z M17.5506667,17.4666667 L9.2906667,17.4666667 C11.9786667,12.8186667 16.2626667,9.2626667 21.4146667,7.4986667 C19.7346667,10.6066667 18.4466667,13.9666667 17.5506667,17.4666667 L17.5506667,17.4666667 Z M28.6666667,50.9546667 C26.3426667,47.5946667 24.5226667,43.8706667 23.3186667,39.8666667 L34.0146667,39.8666667 C32.8106667,43.8706667 30.9906667,47.5946667 28.6666667,50.9546667 Z M35.2186667,34.2666667 L22.1146667,34.2666667 C21.8626667,32.4186667 21.6666667,30.5706667 21.6666667,28.6666667 C21.6666667,26.7626667 21.8626667,24.8866667 22.1146667,23.0666667 L35.2186667,23.0666667 C35.4706667,24.8866667 35.6666667,26.7626667 35.6666667,28.6666667 C35.6666667,30.5706667 35.4706667,32.4186667 35.2186667,34.2666667 Z M35.9186667,49.8346667 C37.5986667,46.7266667 38.8866667,43.3666667 39.7826667,39.8666667 L48.0426667,39.8666667 C45.3546667,44.4866667 41.0706667,48.0706667 35.9186667,49.8346667 L35.9186667,49.8346667 Z M40.8746667,34.2666667 C41.0986667,32.4186667 41.2666667,30.5706667 41.2666667,28.6666667 C41.2666667,26.7626667 41.0986667,24.9146667 40.8746667,23.0666667 L50.3386667,23.0666667 C50.7866667,24.8586667 51.0666667,26.7346667 51.0666667,28.6666667 C51.0666667,30.5986667 50.7866667,32.4746667 50.3386667,34.2666667 L40.8746667,34.2666667 Z" id="Shape"></path>
        </g>
    </g>
</svg>