<?xml version="1.0" encoding="UTF-8"?>
<svg width="41px" height="56px" viewBox="0 0 41 56" version="1.1" xmlns="http://www.w3.org/2000/svg" xmlns:xlink="http://www.w3.org/1999/xlink">
    <title>location-pin-svgrepo-com</title>
    <g id="Page-1" stroke="none" stroke-width="1" fill="none" fill-rule="evenodd">
        <g id="Resume-Eng" transform="translate(-1807.000000, -2826.000000)" fill="#2C7DDD" fill-rule="nonzero">
            <g id="Group" transform="translate(140.000000, 112.000000)">
                <g id="Bio" transform="translate(1140.000000, 2608.000000)">
                    <g id="Shape" transform="translate(527.000000, 106.000000)">
                        <path d="M20.34375,0 L20.34375,0 C9.08860097,0 0,9.04192226 0,20.2392653 C0,24.1434236 1.25360013,27.8713526 2.99773945,30.9348968 L16.2559235,53.7632426 C17.0871149,55.2544142 18.7631237,56 20.34375,56 C21.9245125,56 23.5186286,55.2544142 24.4315765,53.7632426 L37.6897605,30.9484529 C39.447526,27.8846375 40.6875,24.2244891 40.6875,20.2525502 C40.6875,9.05547836 31.598899,0 20.34375,0 Z M20.34375,26.2175077 C16.2559235,26.2175077 12.9175318,22.8962619 12.9175318,18.8294303 C12.9175318,14.7625987 16.2559235,11.4413529 20.34375,11.4413529 C24.4315765,11.4413529 27.7699682,14.7625987 27.7699682,18.8294303 C27.7699682,22.909818 24.4315765,26.2175077 20.34375,26.2175077 Z"></path>
                    </g>
                </g>
            </g>
        </g>
    </g>
</svg>