<?xml version="1.0" encoding="UTF-8"?>
<svg width="32px" height="57px" viewBox="0 0 32 57" version="1.1" xmlns="http://www.w3.org/2000/svg" xmlns:xlink="http://www.w3.org/1999/xlink">
    <title>Mobile</title>
    <g id="Page-1" stroke="none" stroke-width="1" fill="none" fill-rule="evenodd">
        <g id="Resume-Eng" transform="translate(-1293.000000, -3342.000000)" fill="#2C7DDD">
            <g id="Group" transform="translate(140.000000, 112.000000)">
                <g id="Contacts" transform="translate(1140.000000, 3016.000000)">
                    <g id="Capa_1" transform="translate(13.000000, 214.000000)">
                        <path d="M27.0820166,0 L4.033793,0 C1.82798259,0 0.047364584,1.8565499 0.047364584,4.14201256 L0.047364584,52.7231163 C0.047364584,55.0065069 1.82798259,56.8609848 4.033793,56.8609848 L27.0820166,56.8609848 C29.2838346,56.8609848 31.068445,55.0065069 31.068445,52.7231163 L31.068445,4.14201256 C31.068445,1.8565499 29.2838346,0 27.0820166,0 L27.0820166,0 Z M9.87070672,2.51545935 L21.2490953,2.51545935 C21.5365493,2.51545935 21.7701057,2.96094845 21.7701057,3.5121117 C21.7701057,4.06327495 21.5365493,4.51083609 21.2490953,4.51083609 L9.87070672,4.51083609 C9.58125648,4.51083609 9.3516925,4.06327495 9.3516925,3.5121117 C9.3516925,2.96094845 9.58125648,2.51545935 9.87070672,2.51545935 L9.87070672,2.51545935 Z M15.559901,52.7728453 C14.1565664,52.7728453 13.0147351,51.5876371 13.0147351,50.1289194 C13.0147351,48.6702016 14.1565664,47.4891375 15.559901,47.4891375 C16.9592432,47.4891375 18.1010745,48.6702016 18.1010745,50.1289194 C18.1010745,51.5876371 16.9592432,52.7728453 15.559901,52.7728453 L15.559901,52.7728453 Z M28.0821171,43.7200925 L3.03568874,43.7200925 L3.03568874,6.98899868 L28.0821171,6.98899868 L28.0821171,43.7200925 L28.0821171,43.7200925 Z" id="Shape"></path>
                    </g>
                </g>
            </g>
        </g>
    </g>
</svg>