<?xml version="1.0" encoding="UTF-8"?>
<svg width="34px" height="57px" viewBox="0 0 34 57" version="1.1" xmlns="http://www.w3.org/2000/svg" xmlns:xlink="http://www.w3.org/1999/xlink">
    <title>international-passport-svgrepo-com</title>
    <g id="Page-1" stroke="none" stroke-width="1" fill="none" fill-rule="evenodd">
        <g id="Resume-Eng" transform="translate(-1296.000000, -3003.000000)" fill="#2C7DDD" fill-rule="nonzero">
            <g id="international-passport-svgrepo-com" transform="translate(1296.000000, 3003.000000)">
                <path d="M28.8155559,10.7216705 L28.8155559,1.7729658 C28.8155559,0.497110881 27.5222685,-0.359365803 26.3636936,0.148613472 L2.06036489,10.7334839 C2.15399656,10.7275772 2.25348021,10.7216705 2.34711188,10.7216705 L28.8155559,10.7216705 Z" id="Path"></path>
                <path d="M33.9419484,54.5909969 L33.9419484,14.8563855 C33.9419484,13.5509969 32.8944441,12.4936912 31.6011566,12.4936912 L28.8154974,12.4936912 L2.35296386,12.4936912 C1.05967642,12.4936912 0.012172117,13.5509969 0.012172117,14.8563855 L0.012172117,54.5909969 C0.012172117,55.081256 0.158471601,55.5360746 0.410106713,55.9141057 C0.831449225,56.5402197 1.54539071,56.9536912 2.35296386,56.9536912 L31.6012151,56.9536912 C32.8944441,56.9536912 33.9419484,55.8963855 33.9419484,54.5909969 Z M28.8155559,37.2251938 C28.1836007,38.8436394 27.2238761,40.3321959 25.9657005,41.602144 C23.560537,44.0298124 20.3712083,45.3646756 16.9712083,45.3646756 C13.5711497,45.3646756 10.381821,44.0297534 7.97671601,41.602144 C5.5715525,39.1744166 4.24900516,35.9552456 4.24900516,32.5234912 C4.24900516,29.0916187 5.5715525,25.8724477 7.97671601,23.4448383 C10.3818795,21.0171699 13.5712083,19.6822477 16.9712083,19.6822477 C20.3712083,19.6822477 23.560537,21.0171699 25.9657005,23.4448383 C27.2238761,24.7147865 28.1836007,26.1973772 28.8155559,27.8217295 C29.3891084,29.2984135 29.6933528,30.8873254 29.6933528,32.5235503 C29.6933528,34.1597751 29.3949019,35.7426031 28.8155559,37.2251938 Z" id="Shape"></path>
                <path d="M22.2320792,33.4035358 L17.8548571,33.4035358 L17.8548571,37.0952456 L21.7639208,37.0952456 C22.0214079,35.9434321 22.1794699,34.6971109 22.2320792,33.4035358 Z" id="Path"></path>
                <path d="M9.96638898,33.4035358 L6.04556282,33.4035358 C6.15089845,34.7089834 6.47860929,35.9552456 6.99358348,37.0952456 L10.3935835,37.0952456 C10.1594458,35.9434321 10.0131463,34.7030176 9.96638898,33.4035358 Z" id="Path"></path>
                <path d="M25.6028778,25.7011523 C24.4792392,24.2599088 23.0103924,23.1021886 21.3191704,22.3638466 C21.9687401,23.2852974 22.5246781,24.4134839 22.9577246,25.7011523 L25.6028778,25.7011523 Z" id="Path"></path>
                <path d="M23.4551429,27.4731731 C23.7477418,28.7608415 23.9291532,30.1607378 23.981821,31.6374218 L27.9026472,31.6374218 C27.7856076,30.1489244 27.375969,28.7431212 26.7263993,27.4731731 L23.4551429,27.4731731 Z" id="Path"></path>
                <path d="M17.8548571,43.4213596 C18.176716,43.2972591 18.4985749,43.1083026 18.8145818,42.8484062 C19.446537,42.3286135 20.0434974,41.5430176 20.5467676,40.5684062 C20.8159587,40.0427067 21.0558313,39.4815668 21.2606506,38.8790207 L17.8548571,38.8790207 L17.8548571,43.4213596 Z" id="Path"></path>
                <path d="M13.4072943,40.5624995 C13.9106231,41.5371109 14.5074664,42.3286135 15.1395387,42.8425585 C15.4554871,43.1023959 15.777346,43.2914705 16.0992048,43.4154528 L16.0992048,38.8672663 L12.6933528,38.8672663 C12.8981721,39.4756601 13.1381618,40.0368 13.4072943,40.5624995 Z" id="Path"></path>
                <path d="M12.1901411,37.1011523 L16.0992633,37.1011523 L16.0992633,33.4094425 L11.7219828,33.4094425 C11.7746506,34.6971109 11.9325955,35.9434321 12.1901411,37.1011523 Z" id="Path"></path>
                <path d="M8.0059759,38.8731731 C9.16466781,40.5388725 10.7681102,41.8619813 12.6348916,42.6830176 C11.9093046,41.6493389 11.3006403,40.3557637 10.8441859,38.8731731 L8.0059759,38.8731731 Z" id="Path"></path>
                <path d="M11.7219828,31.631515 L16.0992633,31.631515 L16.0992633,27.4672663 L12.3071807,27.4672663 C11.9794699,28.7608415 11.7805026,30.1666446 11.7219828,31.631515 Z" id="Path"></path>
                <path d="M21.3191704,42.6771109 C23.1859518,41.8619813 24.7894527,40.5329658 25.9480861,38.8672663 L23.1098761,38.8672663 C22.6593322,40.3557637 22.0506678,41.6434321 21.3191704,42.6771109 Z" id="Path"></path>
                <path d="M23.560537,37.1011523 L26.960537,37.1011523 C27.4755697,35.9611523 27.803222,34.7148311 27.9084991,33.4094425 L23.987673,33.4094425 C23.9409157,34.7030176 23.7946162,35.9434321 23.560537,37.1011523 Z" id="Path"></path>
                <path d="M13.4072943,24.478458 C13.2083855,24.8623959 13.0269157,25.2699606 12.8630602,25.7011523 L16.0992048,25.7011523 L16.0992048,21.6195979 C15.777346,21.7436394 15.4554871,21.9326549 15.1395387,22.1925513 C14.5074664,22.712344 13.9106231,23.4979399 13.4072943,24.478458 Z" id="Path"></path>
                <path d="M10.4930671,27.4731731 L7.22181067,27.4731731 C6.57809294,28.7371554 6.16260241,30.1489244 6.04556282,31.6374218 L9.96638898,31.6374218 C10.0190568,30.1607378 10.2004682,28.7608415 10.4930671,27.4731731 Z" id="Path"></path>
                <path d="M20.5467676,24.478458 C20.0434974,23.5038466 19.446537,22.712344 18.8145818,22.198458 C18.4985749,21.9385617 18.176716,21.7495461 17.8548571,21.6255047 L17.8548571,25.7070591 L21.0909432,25.7070591 C20.9271463,25.2699606 20.7457349,24.8623959 20.5467676,24.478458 Z" id="Path"></path>
                <path d="M21.6468812,27.4731731 L17.8548571,27.4731731 L17.8548571,31.6374218 L22.2320792,31.6374218 C22.1735594,30.1666446 21.9746506,28.7608415 21.6468812,27.4731731 Z" id="Path"></path>
                <path d="M12.6290396,22.3579399 C10.9378176,23.0962819 9.46897074,24.2540021 8.34539071,25.6952456 L10.9904854,25.6952456 C11.4293838,24.4134839 11.9794699,23.2793907 12.6290396,22.3579399 Z" id="Path"></path>
            </g>
        </g>
    </g>
</svg>