<?xml version="1.0" encoding="UTF-8"?>
<svg width="56px" height="56px" viewBox="0 0 56 56" version="1.1" xmlns="http://www.w3.org/2000/svg" xmlns:xlink="http://www.w3.org/1999/xlink">
    <title>telegram-logo-svgrepo-com</title>
    <defs>
        <linearGradient x1="61.3438559%" y1="47.9953456%" x2="80.4983437%" y2="73.7124736%" id="linearGradient-1">
            <stop stop-color="#EFF7FC" offset="0%"></stop>
            <stop stop-color="#FFFFFF" offset="100%"></stop>
        </linearGradient>
    </defs>
    <g id="Page-1" stroke="none" stroke-width="1" fill="none" fill-rule="evenodd">
        <g id="Resume-Eng" transform="translate(-2009.000000, -3342.000000)" fill-rule="nonzero">
            <g id="Group" transform="translate(140.000000, 112.000000)">
                <g id="Contacts" transform="translate(1140.000000, 3016.000000)">
                    <g id="telegram-logo-svgrepo-com" transform="translate(729.000000, 214.000000)">
                        <path d="M56,28 C56,43.47 43.47,56 28,56 C12.53,56 0,43.47 0,28 C0,12.53 12.53,0 28,0 C43.47,0 56,12.53 56,28 Z" id="path2995-1-0" fill="#2C7DDD"></path>
                        <path d="M22.4424779,40.2807018 C21.5221239,40.2807018 21.6873156,39.9249849 21.3569322,39.0475499 L18.6666667,30.1309135 L35.3746313,19.6491228 L37.3333333,20.1708409 L35.7050147,24.6291591 L22.4424779,40.2807018 Z" id="path2993" fill="#C8DAEA"></path>
                        <path d="M22.5964912,41.2631579 C23.2982456,41.2631579 23.6023392,40.9432885 24,40.5777234 C24.6081871,40.0065279 32.4210526,32.5809874 32.4210526,32.5809874 L27.625731,31.4385965 L23.1812865,34.1803346 L22.5964912,41.0346797 L22.5964912,41.2631579 Z" id="path2989" fill="#A9C9DD"></path>
                        <path d="M23.7074321,33.5656605 L35.0015096,41.9004359 C36.2849275,42.6008372 37.2183223,42.2506366 37.5450105,40.7097537 L42.14198,19.044007 C42.6086775,17.1529235 41.4185991,16.3124419 40.1818509,16.8727629 L13.2067403,27.2853955 C11.3632855,28.0324903 11.3866204,29.0597455 12.8800521,29.503333 L19.8105087,31.674577 L35.8415649,21.5654516 C36.5882808,21.0985174 37.2883269,21.3553312 36.72829,21.8689589 L23.7074321,33.5656605 Z" id="path2991" fill="url(#linearGradient-1)"></path>
                    </g>
                </g>
            </g>
        </g>
    </g>
</svg>